<svg width="256" height="46" viewBox="0 0 256 46" fill="none" xmlns="http://www.w3.org/2000/svg">
<path d="M0 0L19.2417 21.832L8.51111 34.4139L0 24.5005V16.468L8.32638 25.3473L11.6569 21.6472L0 8.20907V0Z" fill="#FDB827"/>
<path d="M12.5823 10.7308V1.42139L20.8075 10.7308L29.0665 1.42139V10.7308L20.8237 19.9754L12.5823 10.7308Z" fill="#FDB827"/>
<path d="M41.8503 0L10.3611 36.6334L13.6916 40.7042L20.8233 33.3244L23.6833 36.6334L17.0222 44.4042L18.1319 45.8848H23.8613L41.8503 25.1787L42 15.7264L28.3083 32.0084L24.9778 28.6778L42 8.4356L41.8503 0Z" fill="#FDB827"/>
<path d="M61.26 22.2C60.1667 22.2 59.2333 22.0467 58.46 21.74V19.9C58.78 20.0333 59.1533 20.1467 59.58 20.24C60.02 20.32 60.4533 20.36 60.88 20.36C61.7733 20.36 62.3933 20.18 62.74 19.82C63.1 19.4467 63.28 18.8533 63.28 18.04V9.12H65.46V18.4C65.46 19.6267 65.1067 20.5667 64.4 21.22C63.7067 21.8733 62.66 22.2 61.26 22.2ZM73.5733 22.2C71.5333 22.2 70.0066 21.6667 68.9933 20.6C67.9799 19.52 67.4733 17.8533 67.4733 15.6C67.4733 13.2533 67.9799 11.5533 68.9933 10.5C70.0066 9.44667 71.5333 8.92 73.5733 8.92C75.6266 8.92 77.1533 9.44667 78.1533 10.5C79.1666 11.5533 79.6733 13.2533 79.6733 15.6C79.6733 17.8533 79.1666 19.52 78.1533 20.6C77.1533 21.6667 75.6266 22.2 73.5733 22.2ZM73.5733 20.36C74.9199 20.36 75.9066 19.9933 76.5333 19.26C77.1733 18.5133 77.4933 17.2933 77.4933 15.6C77.4933 13.8133 77.1733 12.5667 76.5333 11.86C75.9066 11.14 74.9199 10.78 73.5733 10.78C72.2399 10.78 71.2533 11.14 70.6133 11.86C69.9866 12.5667 69.6733 13.8133 69.6733 15.6C69.6733 17.2933 69.9866 18.5133 70.6133 19.26C71.2533 19.9933 72.2399 20.36 73.5733 20.36ZM81.7991 22V9.12H83.7191L90.4391 18.6V9.12H92.5991V22H90.6791L83.9791 12.54V22H81.7991ZM94.7589 22L99.6789 9.12H102.119L106.999 22H104.759L103.479 18.68H98.2989L97.0189 22H94.7589ZM98.6389 17H103.119L100.879 11.1L98.6389 17ZM110.784 22V10.82H106.664V9.12H117.064V10.82H112.964V22H110.784ZM118.811 22V9.12H120.991V14.72H127.191V9.12H129.371V22H127.191V16.4H120.991V22H118.811ZM131.517 22L136.437 9.12H138.877L143.757 22H141.517L140.237 18.68H135.057L133.777 22H131.517ZM135.397 17H139.877L137.637 11.1L135.397 17ZM145.901 22V9.12H147.821L154.541 18.6V9.12H156.701V22H154.781L148.081 12.54V22H145.901ZM163.85 22V9.12H166.03V14.72H172.23V9.12H174.41V22H172.23V16.4H166.03V22H163.85ZM176.936 22V9.12H185.916V10.82H179.116V14.72H185.176V16.4H179.116V20.32H185.916V22H176.936ZM187.932 22V9.12H189.852L196.572 18.6V9.12H198.732V22H196.812L190.112 12.54V22H187.932ZM201.272 22V9.12H207.192C208.632 9.12 209.678 9.49333 210.332 10.24C210.998 10.9733 211.332 11.9733 211.332 13.24C211.332 14.1467 211.105 14.92 210.652 15.56C210.198 16.2 209.545 16.6467 208.692 16.9C208.932 17.0733 209.118 17.26 209.252 17.46C209.385 17.66 209.518 17.9267 209.652 18.26L211.272 22H209.032L207.452 18.4C207.305 18.0533 207.125 17.8067 206.912 17.66C206.712 17.5133 206.365 17.44 205.872 17.44H203.452V22H201.272ZM203.452 15.68H206.612C207.398 15.68 208.018 15.4867 208.472 15.1C208.925 14.7133 209.152 14.0933 209.152 13.24C209.152 11.6267 208.372 10.82 206.812 10.82H203.452V15.68ZM213.479 22V9.12H215.659V22H213.479ZM225.746 25.44C224.732 25.44 223.992 25.1533 223.526 24.58C223.059 24.0067 222.812 23.1933 222.786 22.14C221.119 21.9533 219.866 21.3333 219.026 20.28C218.199 19.2133 217.786 17.6533 217.786 15.6C217.786 13.2533 218.292 11.5533 219.306 10.5C220.319 9.44667 221.846 8.92 223.886 8.92C225.939 8.92 227.466 9.44667 228.466 10.5C229.479 11.5533 229.986 13.2533 229.986 15.6C229.986 17.6933 229.546 19.2733 228.666 20.34C227.799 21.4067 226.486 22.0133 224.726 22.16C224.739 22.7733 224.852 23.1933 225.066 23.42C225.292 23.66 225.672 23.78 226.206 23.78C226.686 23.78 227.159 23.7133 227.626 23.58V25.2C227.412 25.2667 227.132 25.32 226.786 25.36C226.439 25.4133 226.092 25.44 225.746 25.44ZM223.886 20.36C225.232 20.36 226.219 19.9933 226.846 19.26C227.486 18.5133 227.806 17.2933 227.806 15.6C227.806 13.8133 227.486 12.5667 226.846 11.86C226.219 11.14 225.232 10.78 223.886 10.78C222.552 10.78 221.566 11.14 220.926 11.86C220.299 12.5667 219.986 13.8133 219.986 15.6C219.986 17.2933 220.299 18.5133 220.926 19.26C221.566 19.9933 222.552 20.36 223.886 20.36ZM237.631 22.2C235.858 22.2 234.478 21.7733 233.491 20.92C232.518 20.0667 232.031 18.8333 232.031 17.22V9.12H234.211V17.14C234.211 18.22 234.504 19.0267 235.091 19.56C235.691 20.0933 236.538 20.36 237.631 20.36C238.711 20.36 239.544 20.0933 240.131 19.56C240.731 19.0267 241.031 18.22 241.031 17.14V9.12H243.191V17.22C243.191 18.8333 242.704 20.0667 241.731 20.92C240.758 21.7733 239.391 22.2 237.631 22.2ZM245.608 22V9.12H254.588V10.82H247.788V14.72H253.848V16.4H247.788V20.32H254.588V22H245.608Z" fill="white"/>
<path d="M110.605 40V30.984H114.189C115.179 30.984 115.902 31.2453 116.359 31.768C116.826 32.2813 117.059 32.958 117.059 33.798C117.059 34.6473 116.798 35.3193 116.275 35.814C115.753 36.2993 115.039 36.542 114.133 36.542H111.375V40H110.605ZM111.375 35.926H114.063C114.801 35.926 115.356 35.7347 115.729 35.352C116.103 34.9693 116.289 34.4513 116.289 33.798C116.289 33.098 116.107 32.5613 115.743 32.188C115.389 31.8053 114.852 31.614 114.133 31.614H111.375V35.926ZM121.753 40.14C120.559 40.14 119.686 39.86 119.135 39.3C118.594 38.7307 118.323 37.844 118.323 36.64C118.323 35.576 118.561 34.7407 119.037 34.134C119.523 33.5273 120.307 33.224 121.389 33.224C122.033 33.224 122.556 33.3453 122.957 33.588C123.359 33.8213 123.653 34.1387 123.839 34.54C124.035 34.9413 124.133 35.3893 124.133 35.884V37.088H119.093C119.131 37.9467 119.355 38.5673 119.765 38.95C120.176 39.3233 120.89 39.51 121.907 39.51C122.523 39.51 123.121 39.3933 123.699 39.16V39.79C123.13 40.0233 122.481 40.14 121.753 40.14ZM119.093 36.486H123.433V35.856C123.433 35.24 123.275 34.7547 122.957 34.4C122.64 34.0453 122.122 33.868 121.403 33.868C120.526 33.868 119.919 34.0967 119.583 34.554C119.257 35.002 119.093 35.646 119.093 36.486ZM126.096 40V33.364H126.768L126.852 34.288C127.197 34.0453 127.589 33.8307 128.028 33.644C128.476 33.4573 128.914 33.3173 129.344 33.224V33.854C129.073 33.9193 128.779 34.008 128.462 34.12C128.154 34.232 127.855 34.358 127.566 34.498C127.286 34.6287 127.052 34.764 126.866 34.904V40H126.096ZM132.663 40.14C132.271 40.14 131.893 40.112 131.529 40.056C131.174 40.0093 130.871 39.944 130.619 39.86V39.174C130.927 39.2767 131.244 39.356 131.571 39.412C131.897 39.4587 132.229 39.482 132.565 39.482C133.218 39.482 133.685 39.398 133.965 39.23C134.245 39.0527 134.385 38.7493 134.385 38.32C134.385 38.0213 134.315 37.7973 134.175 37.648C134.044 37.4893 133.834 37.354 133.545 37.242C133.255 37.13 132.887 36.9993 132.439 36.85C132.065 36.7193 131.725 36.5933 131.417 36.472C131.118 36.3413 130.88 36.164 130.703 35.94C130.525 35.7067 130.437 35.3847 130.437 34.974C130.437 34.3953 130.628 33.9613 131.011 33.672C131.393 33.3733 132.014 33.224 132.873 33.224C133.209 33.224 133.526 33.2473 133.825 33.294C134.133 33.3313 134.403 33.3873 134.637 33.462V34.148C134.095 33.98 133.545 33.896 132.985 33.896C132.322 33.896 131.855 33.98 131.585 34.148C131.323 34.3067 131.193 34.5773 131.193 34.96C131.193 35.2213 131.249 35.4267 131.361 35.576C131.482 35.716 131.669 35.8373 131.921 35.94C132.182 36.0427 132.518 36.1593 132.929 36.29C133.423 36.4487 133.834 36.6073 134.161 36.766C134.497 36.9247 134.744 37.1253 134.903 37.368C135.071 37.6013 135.155 37.9187 135.155 38.32C135.155 38.9733 134.931 39.44 134.483 39.72C134.044 40 133.437 40.14 132.663 40.14ZM139.657 40.14C138.537 40.14 137.73 39.846 137.235 39.258C136.741 38.67 136.493 37.8113 136.493 36.682C136.493 35.562 136.745 34.708 137.249 34.12C137.753 33.5227 138.556 33.224 139.657 33.224C140.768 33.224 141.575 33.5227 142.079 34.12C142.583 34.708 142.835 35.562 142.835 36.682C142.835 37.8113 142.583 38.67 142.079 39.258C141.585 39.846 140.777 40.14 139.657 40.14ZM139.657 39.482C140.544 39.482 141.165 39.2533 141.519 38.796C141.883 38.3387 142.065 37.634 142.065 36.682C142.065 35.7393 141.883 35.0393 141.519 34.582C141.155 34.1247 140.535 33.896 139.657 33.896C138.78 33.896 138.159 34.1247 137.795 34.582C137.431 35.0393 137.249 35.7393 137.249 36.682C137.249 37.634 137.431 38.3387 137.795 38.796C138.159 39.2533 138.78 39.482 139.657 39.482ZM144.662 40V33.364H145.334L145.404 34.176C145.74 33.896 146.123 33.6673 146.552 33.49C146.981 33.3127 147.495 33.224 148.092 33.224C148.923 33.224 149.525 33.4153 149.898 33.798C150.271 34.1807 150.458 34.7873 150.458 35.618V40H149.688V35.632C149.688 34.9787 149.553 34.5213 149.282 34.26C149.021 33.9987 148.517 33.868 147.77 33.868C147.303 33.868 146.869 33.9567 146.468 34.134C146.076 34.3113 145.731 34.5447 145.432 34.834V40H144.662ZM154.307 40.14C153.887 40.14 153.5 40.0747 153.145 39.944C152.8 39.8133 152.52 39.608 152.305 39.328C152.1 39.0387 151.997 38.6747 151.997 38.236C151.997 37.648 152.184 37.172 152.557 36.808C152.931 36.4347 153.565 36.248 154.461 36.248H156.939V35.618C156.939 35.198 156.883 34.862 156.771 34.61C156.659 34.3487 156.454 34.162 156.155 34.05C155.866 33.938 155.437 33.882 154.867 33.882C154.485 33.882 154.116 33.9147 153.761 33.98C153.407 34.0453 153.071 34.134 152.753 34.246V33.588C153.043 33.476 153.379 33.3873 153.761 33.322C154.153 33.2567 154.569 33.224 155.007 33.224C155.922 33.224 156.594 33.4107 157.023 33.784C157.462 34.148 157.681 34.7547 157.681 35.604V40H157.051L156.981 39.174C156.673 39.5007 156.309 39.7433 155.889 39.902C155.469 40.0607 154.942 40.14 154.307 40.14ZM154.503 39.496C155.035 39.496 155.502 39.412 155.903 39.244C156.305 39.0667 156.65 38.8053 156.939 38.46V36.864H154.489C153.836 36.864 153.383 36.9807 153.131 37.214C152.879 37.4473 152.753 37.788 152.753 38.236C152.753 38.6933 152.907 39.02 153.215 39.216C153.533 39.4027 153.962 39.496 154.503 39.496ZM160.947 40.14C160.573 40.14 160.275 40.0373 160.051 39.832C159.827 39.6267 159.715 39.258 159.715 38.726V30.564H160.485V38.698C160.485 38.9967 160.531 39.202 160.625 39.314C160.718 39.426 160.867 39.482 161.073 39.482C161.278 39.482 161.483 39.454 161.689 39.398V40.042C161.567 40.0793 161.441 40.1027 161.311 40.112C161.18 40.1307 161.059 40.14 160.947 40.14ZM169.003 40V31.614H165.895V30.984H172.881V31.614H169.773V40H169.003ZM173.236 40V33.364H173.908L173.992 34.288C174.338 34.0453 174.73 33.8307 175.168 33.644C175.616 33.4573 176.055 33.3173 176.484 33.224V33.854C176.214 33.9193 175.92 34.008 175.602 34.12C175.294 34.232 174.996 34.358 174.706 34.498C174.426 34.6287 174.193 34.764 174.006 34.904V40H173.236ZM179.532 40.14C179.112 40.14 178.725 40.0747 178.37 39.944C178.025 39.8133 177.745 39.608 177.53 39.328C177.325 39.0387 177.222 38.6747 177.222 38.236C177.222 37.648 177.409 37.172 177.782 36.808C178.155 36.4347 178.79 36.248 179.686 36.248H182.164V35.618C182.164 35.198 182.108 34.862 181.996 34.61C181.884 34.3487 181.679 34.162 181.38 34.05C181.091 33.938 180.661 33.882 180.092 33.882C179.709 33.882 179.341 33.9147 178.986 33.98C178.631 34.0453 178.295 34.134 177.978 34.246V33.588C178.267 33.476 178.603 33.3873 178.986 33.322C179.378 33.2567 179.793 33.224 180.232 33.224C181.147 33.224 181.819 33.4107 182.248 33.784C182.687 34.148 182.906 34.7547 182.906 35.604V40H182.276L182.206 39.174C181.898 39.5007 181.534 39.7433 181.114 39.902C180.694 40.0607 180.167 40.14 179.532 40.14ZM179.728 39.496C180.26 39.496 180.727 39.412 181.128 39.244C181.529 39.0667 181.875 38.8053 182.164 38.46V36.864H179.714C179.061 36.864 178.608 36.9807 178.356 37.214C178.104 37.4473 177.978 37.788 177.978 38.236C177.978 38.6933 178.132 39.02 178.44 39.216C178.757 39.4027 179.187 39.496 179.728 39.496ZM185.737 31.642V30.802H186.619V31.642H185.737ZM185.835 40V34.008H184.799L184.883 33.364H186.605V40H185.835ZM188.713 40V33.364H189.385L189.455 34.176C189.791 33.896 190.174 33.6673 190.603 33.49C191.032 33.3127 191.546 33.224 192.143 33.224C192.974 33.224 193.576 33.4153 193.949 33.798C194.322 34.1807 194.509 34.7873 194.509 35.618V40H193.739V35.632C193.739 34.9787 193.604 34.5213 193.333 34.26C193.072 33.9987 192.568 33.868 191.821 33.868C191.354 33.868 190.92 33.9567 190.519 34.134C190.127 34.3113 189.782 34.5447 189.483 34.834V40H188.713ZM199.546 40.14C198.352 40.14 197.479 39.86 196.928 39.3C196.387 38.7307 196.116 37.844 196.116 36.64C196.116 35.576 196.354 34.7407 196.83 34.134C197.316 33.5273 198.1 33.224 199.182 33.224C199.826 33.224 200.349 33.3453 200.75 33.588C201.152 33.8213 201.446 34.1387 201.632 34.54C201.828 34.9413 201.926 35.3893 201.926 35.884V37.088H196.886C196.924 37.9467 197.148 38.5673 197.558 38.95C197.969 39.3233 198.683 39.51 199.7 39.51C200.316 39.51 200.914 39.3933 201.492 39.16V39.79C200.923 40.0233 200.274 40.14 199.546 40.14ZM196.886 36.486H201.226V35.856C201.226 35.24 201.068 34.7547 200.75 34.4C200.433 34.0453 199.915 33.868 199.196 33.868C198.319 33.868 197.712 34.0967 197.376 34.554C197.05 35.002 196.886 35.646 196.886 36.486ZM203.889 40V33.364H204.561L204.645 34.288C204.99 34.0453 205.382 33.8307 205.821 33.644C206.269 33.4573 206.707 33.3173 207.137 33.224V33.854C206.866 33.9193 206.572 34.008 206.255 34.12C205.947 34.232 205.648 34.358 205.359 34.498C205.079 34.6287 204.845 34.764 204.659 34.904V40H203.889Z" fill="white"/>
</svg>
