<svg width="1379" height="307" viewBox="0 0 1379 307" fill="none" xmlns="http://www.w3.org/2000/svg">
<g clip-path="url(#clip0_978_8957)">
<path d="M34.5 -0.0400391L163.27 146.07L91.46 230.26L34.5 163.92V110.17L90.22 169.59L112.5 144.83L34.5 54.8999V-0.0400391Z" fill="#FDB827"/>
<path d="M118.699 71.7797V9.46973L173.739 71.7797L229.009 9.46973V71.7797L173.849 133.64L118.699 71.7797Z" fill="#FDB827"/>
<path d="M314.56 -0.0400391L103.84 245.12L126.12 272.36L173.85 222.97L192.99 245.12L148.41 297.12L155.84 307.03H194.18L314.56 168.46L315.56 105.21L223.94 214.17L201.65 191.88L315.56 56.41L314.56 -0.0400391Z" fill="#FDB827"/>
<path d="M383.648 155.96C378.4 155.96 373.92 155.224 370.208 153.752V144.92C371.744 145.56 373.536 146.104 375.584 146.552C377.696 146.936 379.776 147.128 381.824 147.128C386.112 147.128 389.088 146.264 390.752 144.536C392.48 142.744 393.344 139.896 393.344 135.992V93.176H403.808V137.72C403.808 143.608 402.112 148.12 398.72 151.256C395.392 154.392 390.368 155.96 383.648 155.96ZM442.752 155.96C432.96 155.96 425.632 153.4 420.768 148.28C415.904 143.096 413.472 135.096 413.472 124.28C413.472 113.016 415.904 104.856 420.768 99.8C425.632 94.744 432.96 92.216 442.752 92.216C452.608 92.216 459.936 94.744 464.736 99.8C469.6 104.856 472.032 113.016 472.032 124.28C472.032 135.096 469.6 143.096 464.736 148.28C459.936 153.4 452.608 155.96 442.752 155.96ZM442.752 147.128C449.216 147.128 453.952 145.368 456.96 141.848C460.032 138.264 461.568 132.408 461.568 124.28C461.568 115.704 460.032 109.72 456.96 106.328C453.952 102.872 449.216 101.144 442.752 101.144C436.352 101.144 431.616 102.872 428.544 106.328C425.536 109.72 424.032 115.704 424.032 124.28C424.032 132.408 425.536 138.264 428.544 141.848C431.616 145.368 436.352 147.128 442.752 147.128ZM482.236 155V93.176H491.452L523.708 138.68V93.176H534.076V155H524.86L492.7 109.592V155H482.236ZM544.443 155L568.059 93.176H579.771L603.195 155H592.443L586.299 139.064H561.435L555.291 155H544.443ZM563.067 131H584.571L573.819 102.68L563.067 131ZM621.361 155V101.336H601.585V93.176H651.505V101.336H631.825V155H621.361ZM659.892 155V93.176H670.356V120.056H700.116V93.176H710.58V155H700.116V128.12H670.356V155H659.892ZM720.88 155L744.496 93.176H756.208L779.632 155H768.88L762.736 139.064H737.872L731.728 155H720.88ZM739.504 131H761.008L750.256 102.68L739.504 131ZM789.923 155V93.176H799.139L831.395 138.68V93.176H841.763V155H832.547L800.387 109.592V155H789.923ZM876.079 155V93.176H886.543V120.056H916.303V93.176H926.767V155H916.303V128.12H886.543V155H876.079ZM938.892 155V93.176H981.996V101.336H949.356V120.056H978.444V128.12H949.356V146.936H981.996V155H938.892ZM991.673 155V93.176H1000.89L1033.15 138.68V93.176H1043.51V155H1034.3L1002.14 109.592V155H991.673ZM1055.7 155V93.176H1084.12C1091.03 93.176 1096.06 94.968 1099.19 98.552C1102.39 102.072 1103.99 106.872 1103.99 112.952C1103.99 117.304 1102.9 121.016 1100.73 124.088C1098.55 127.16 1095.42 129.304 1091.32 130.52C1092.47 131.352 1093.37 132.248 1094.01 133.208C1094.65 134.168 1095.29 135.448 1095.93 137.048L1103.7 155H1092.95L1085.37 137.72C1084.66 136.056 1083.8 134.872 1082.78 134.168C1081.82 133.464 1080.15 133.112 1077.78 133.112H1066.17V155H1055.7ZM1066.17 124.664H1081.34C1085.11 124.664 1088.09 123.736 1090.26 121.88C1092.44 120.024 1093.53 117.048 1093.53 112.952C1093.53 105.208 1089.78 101.336 1082.3 101.336H1066.17V124.664ZM1114.3 155V93.176H1124.76V155H1114.3ZM1173.18 171.512C1168.32 171.512 1164.76 170.136 1162.52 167.384C1160.28 164.632 1159.1 160.728 1158.97 155.672C1150.97 154.776 1144.96 151.8 1140.92 146.744C1136.96 141.624 1134.97 134.136 1134.97 124.28C1134.97 113.016 1137.4 104.856 1142.27 99.8C1147.13 94.744 1154.46 92.216 1164.25 92.216C1174.11 92.216 1181.44 94.744 1186.24 99.8C1191.1 104.856 1193.53 113.016 1193.53 124.28C1193.53 134.328 1191.42 141.912 1187.2 147.032C1183.04 152.152 1176.73 155.064 1168.28 155.768C1168.35 158.712 1168.89 160.728 1169.92 161.816C1171 162.968 1172.83 163.544 1175.39 163.544C1177.69 163.544 1179.96 163.224 1182.2 162.584V170.36C1181.18 170.68 1179.84 170.936 1178.17 171.128C1176.51 171.384 1174.84 171.512 1173.18 171.512ZM1164.25 147.128C1170.72 147.128 1175.45 145.368 1178.46 141.848C1181.53 138.264 1183.07 132.408 1183.07 124.28C1183.07 115.704 1181.53 109.72 1178.46 106.328C1175.45 102.872 1170.72 101.144 1164.25 101.144C1157.85 101.144 1153.12 102.872 1150.04 106.328C1147.04 109.72 1145.53 115.704 1145.53 124.28C1145.53 132.408 1147.04 138.264 1150.04 141.848C1153.12 145.368 1157.85 147.128 1164.25 147.128ZM1230.23 155.96C1221.72 155.96 1215.09 153.912 1210.36 149.816C1205.69 145.72 1203.35 139.8 1203.35 132.056V93.176H1213.81V131.672C1213.81 136.856 1215.22 140.728 1218.04 143.288C1220.92 145.848 1224.98 147.128 1230.23 147.128C1235.41 147.128 1239.41 145.848 1242.23 143.288C1245.11 140.728 1246.55 136.856 1246.55 131.672V93.176H1256.92V132.056C1256.92 139.8 1254.58 145.72 1249.91 149.816C1245.24 153.912 1238.68 155.96 1230.23 155.96ZM1268.52 155V93.176H1311.62V101.336H1278.98V120.056H1308.07V128.12H1278.98V146.936H1311.62V155H1268.52Z" fill="white"/>
<path d="M629.863 238V196.784H646.247C650.769 196.784 654.076 197.979 656.167 200.368C658.3 202.715 659.367 205.808 659.367 209.648C659.367 213.531 658.172 216.603 655.783 218.864C653.393 221.083 650.129 222.192 645.991 222.192H633.383V238H629.863ZM633.383 219.376H645.671C649.041 219.376 651.58 218.501 653.287 216.752C654.993 215.003 655.847 212.635 655.847 209.648C655.847 206.448 655.015 203.995 653.351 202.288C651.729 200.539 649.276 199.664 645.991 199.664H633.383V219.376ZM680.825 238.64C675.364 238.64 671.374 237.36 668.857 234.8C666.382 232.197 665.145 228.144 665.145 222.64C665.145 217.776 666.233 213.957 668.409 211.184C670.628 208.411 674.212 207.024 679.161 207.024C682.105 207.024 684.494 207.579 686.329 208.688C688.164 209.755 689.508 211.205 690.361 213.04C691.257 214.875 691.705 216.923 691.705 219.184V224.688H668.665C668.836 228.613 669.86 231.451 671.737 233.2C673.614 234.907 676.878 235.76 681.529 235.76C684.345 235.76 687.076 235.227 689.721 234.16V237.04C687.118 238.107 684.153 238.64 680.825 238.64ZM668.665 221.936H688.505V219.056C688.505 216.24 687.78 214.021 686.329 212.4C684.878 210.779 682.51 209.968 679.225 209.968C675.214 209.968 672.441 211.013 670.905 213.104C669.412 215.152 668.665 218.096 668.665 221.936ZM700.675 238V207.664H703.747L704.131 211.888C705.71 210.779 707.502 209.797 709.507 208.944C711.555 208.091 713.56 207.451 715.523 207.024V209.904C714.286 210.203 712.942 210.608 711.491 211.12C710.083 211.632 708.718 212.208 707.395 212.848C706.115 213.445 705.048 214.064 704.195 214.704V238H700.675ZM730.696 238.64C728.904 238.64 727.176 238.512 725.512 238.256C723.891 238.043 722.504 237.744 721.352 237.36V234.224C722.76 234.693 724.211 235.056 725.704 235.312C727.197 235.525 728.712 235.632 730.248 235.632C733.235 235.632 735.368 235.248 736.648 234.48C737.928 233.669 738.568 232.283 738.568 230.32C738.568 228.955 738.248 227.931 737.608 227.248C737.011 226.523 736.051 225.904 734.728 225.392C733.405 224.88 731.72 224.283 729.672 223.6C727.965 223.003 726.408 222.427 725 221.872C723.635 221.275 722.547 220.464 721.736 219.44C720.925 218.373 720.52 216.901 720.52 215.024C720.52 212.379 721.395 210.395 723.144 209.072C724.893 207.707 727.731 207.024 731.656 207.024C733.192 207.024 734.643 207.131 736.008 207.344C737.416 207.515 738.653 207.771 739.72 208.112V211.248C737.245 210.48 734.728 210.096 732.168 210.096C729.139 210.096 727.005 210.48 725.768 211.248C724.573 211.973 723.976 213.211 723.976 214.96C723.976 216.155 724.232 217.093 724.744 217.776C725.299 218.416 726.152 218.971 727.304 219.44C728.499 219.909 730.035 220.443 731.912 221.04C734.173 221.765 736.051 222.491 737.544 223.216C739.08 223.941 740.211 224.859 740.936 225.968C741.704 227.035 742.088 228.485 742.088 230.32C742.088 233.307 741.064 235.44 739.016 236.72C737.011 238 734.237 238.64 730.696 238.64ZM762.672 238.64C757.552 238.64 753.861 237.296 751.6 234.608C749.338 231.92 748.208 227.995 748.208 222.832C748.208 217.712 749.36 213.808 751.664 211.12C753.968 208.389 757.637 207.024 762.672 207.024C767.749 207.024 771.44 208.389 773.744 211.12C776.048 213.808 777.2 217.712 777.2 222.832C777.2 227.995 776.048 231.92 773.744 234.608C771.482 237.296 767.792 238.64 762.672 238.64ZM762.672 235.632C766.725 235.632 769.562 234.587 771.184 232.496C772.848 230.405 773.68 227.184 773.68 222.832C773.68 218.523 772.848 215.323 771.184 213.232C769.52 211.141 766.682 210.096 762.672 210.096C758.661 210.096 755.824 211.141 754.16 213.232C752.496 215.323 751.664 218.523 751.664 222.832C751.664 227.184 752.496 230.405 754.16 232.496C755.824 234.587 758.661 235.632 762.672 235.632ZM785.55 238V207.664H788.622L788.942 211.376C790.478 210.096 792.227 209.051 794.19 208.24C796.153 207.429 798.499 207.024 801.23 207.024C805.027 207.024 807.779 207.899 809.486 209.648C811.193 211.397 812.046 214.171 812.046 217.968V238H808.526V218.032C808.526 215.045 807.907 212.955 806.67 211.76C805.475 210.565 803.171 209.968 799.758 209.968C797.625 209.968 795.641 210.373 793.806 211.184C792.014 211.995 790.435 213.061 789.07 214.384V238H785.55ZM829.643 238.64C827.723 238.64 825.952 238.341 824.331 237.744C822.752 237.147 821.472 236.208 820.491 234.928C819.552 233.605 819.083 231.941 819.083 229.936C819.083 227.248 819.936 225.072 821.643 223.408C823.349 221.701 826.251 220.848 830.347 220.848H841.675V217.968C841.675 216.048 841.419 214.512 840.907 213.36C840.395 212.165 839.456 211.312 838.091 210.8C836.768 210.288 834.805 210.032 832.203 210.032C830.453 210.032 828.768 210.181 827.147 210.48C825.525 210.779 823.989 211.184 822.539 211.696V208.688C823.861 208.176 825.397 207.771 827.147 207.472C828.939 207.173 830.837 207.024 832.843 207.024C837.024 207.024 840.096 207.877 842.059 209.584C844.064 211.248 845.067 214.021 845.067 217.904V238H842.187L841.867 234.224C840.459 235.717 838.795 236.827 836.875 237.552C834.955 238.277 832.544 238.64 829.643 238.64ZM830.539 235.696C832.971 235.696 835.104 235.312 836.939 234.544C838.773 233.733 840.352 232.539 841.675 230.96V223.664H830.475C827.488 223.664 825.419 224.197 824.267 225.264C823.115 226.331 822.539 227.888 822.539 229.936C822.539 232.027 823.243 233.52 824.651 234.416C826.101 235.269 828.064 235.696 830.539 235.696ZM859.995 238.64C858.288 238.64 856.923 238.171 855.899 237.232C854.875 236.293 854.363 234.608 854.363 232.176V194.864H857.883V232.048C857.883 233.413 858.096 234.352 858.523 234.864C858.949 235.376 859.632 235.632 860.571 235.632C861.509 235.632 862.448 235.504 863.387 235.248V238.192C862.832 238.363 862.256 238.469 861.659 238.512C861.061 238.597 860.507 238.64 859.995 238.64ZM896.823 238V199.664H882.615V196.784H914.551V199.664H900.343V238H896.823ZM916.175 238V207.664H919.247L919.631 211.888C921.21 210.779 923.002 209.797 925.007 208.944C927.055 208.091 929.06 207.451 931.023 207.024V209.904C929.786 210.203 928.442 210.608 926.991 211.12C925.583 211.632 924.218 212.208 922.895 212.848C921.615 213.445 920.548 214.064 919.695 214.704V238H916.175ZM944.955 238.64C943.035 238.64 941.264 238.341 939.643 237.744C938.064 237.147 936.784 236.208 935.803 234.928C934.864 233.605 934.395 231.941 934.395 229.936C934.395 227.248 935.248 225.072 936.955 223.408C938.662 221.701 941.563 220.848 945.659 220.848H956.987V217.968C956.987 216.048 956.731 214.512 956.219 213.36C955.707 212.165 954.768 211.312 953.403 210.8C952.08 210.288 950.118 210.032 947.515 210.032C945.766 210.032 944.08 210.181 942.459 210.48C940.838 210.779 939.302 211.184 937.851 211.696V208.688C939.174 208.176 940.71 207.771 942.459 207.472C944.251 207.173 946.15 207.024 948.155 207.024C952.336 207.024 955.408 207.877 957.371 209.584C959.376 211.248 960.379 214.021 960.379 217.904V238H957.499L957.179 234.224C955.771 235.717 954.107 236.827 952.187 237.552C950.267 238.277 947.856 238.64 944.955 238.64ZM945.851 235.696C948.283 235.696 950.416 235.312 952.251 234.544C954.086 233.733 955.664 232.539 956.987 230.96V223.664H945.787C942.8 223.664 940.731 224.197 939.579 225.264C938.427 226.331 937.851 227.888 937.851 229.936C937.851 232.027 938.555 233.52 939.963 234.416C941.414 235.269 943.376 235.696 945.851 235.696ZM973.323 199.792V195.952H977.355V199.792H973.323ZM973.771 238V210.608H969.035L969.419 207.664H977.291V238H973.771ZM986.925 238V207.664H989.997L990.317 211.376C991.853 210.096 993.602 209.051 995.565 208.24C997.528 207.429 999.874 207.024 1002.61 207.024C1006.4 207.024 1009.15 207.899 1010.86 209.648C1012.57 211.397 1013.42 214.171 1013.42 217.968V238H1009.9V218.032C1009.9 215.045 1009.28 212.955 1008.05 211.76C1006.85 210.565 1004.55 209.968 1001.13 209.968C999 209.968 997.016 210.373 995.181 211.184C993.389 211.995 991.81 213.061 990.445 214.384V238H986.925ZM1036.45 238.64C1030.99 238.64 1027 237.36 1024.48 234.8C1022.01 232.197 1020.77 228.144 1020.77 222.64C1020.77 217.776 1021.86 213.957 1024.03 211.184C1026.25 208.411 1029.84 207.024 1034.79 207.024C1037.73 207.024 1040.12 207.579 1041.95 208.688C1043.79 209.755 1045.13 211.205 1045.99 213.04C1046.88 214.875 1047.33 216.923 1047.33 219.184V224.688H1024.29C1024.46 228.613 1025.48 231.451 1027.36 233.2C1029.24 234.907 1032.5 235.76 1037.15 235.76C1039.97 235.76 1042.7 235.227 1045.35 234.16V237.04C1042.74 238.107 1039.78 238.64 1036.45 238.64ZM1024.29 221.936H1044.13V219.056C1044.13 216.24 1043.4 214.021 1041.95 212.4C1040.5 210.779 1038.14 209.968 1034.85 209.968C1030.84 209.968 1028.07 211.013 1026.53 213.104C1025.04 215.152 1024.29 218.096 1024.29 221.936ZM1056.3 238V207.664H1059.37L1059.76 211.888C1061.33 210.779 1063.13 209.797 1065.13 208.944C1067.18 208.091 1069.19 207.451 1071.15 207.024V209.904C1069.91 210.203 1068.57 210.608 1067.12 211.12C1065.71 211.632 1064.34 212.208 1063.02 212.848C1061.74 213.445 1060.67 214.064 1059.82 214.704V238H1056.3Z" fill="white"/>
</g>
<defs>
<clipPath id="clip0_978_8957">
<rect width="1379" height="307" fill="white"/>
</clipPath>
</defs>
</svg>
